<svg width="64" height="67" viewBox="0 0 64 67" fill="none" xmlns="http://www.w3.org/2000/svg">
<path d="M18.6667 5H61.3333C62.8061 5 64 6.24988 64 7.79167V58.0417C64 59.5835 62.8061 60.8333 61.3333 60.8333H18.6667C17.1939 60.8333 16 59.5835 16 58.0417V7.79167C16 6.24988 17.1939 5 18.6667 5ZM21.3333 10.5833V55.25H58.6667V10.5833H21.3333ZM26.6667 16.1667H53.3333V27.3333H26.6667V16.1667ZM26.6667 32.9167H32V38.5H26.6667V32.9167ZM26.6667 44.0833H32V49.6667H26.6667V44.0833ZM37.3333 32.9167H42.6667V38.5H37.3333V32.9167ZM37.3333 44.0833H42.6667V49.6667H37.3333V44.0833ZM48 32.9167H53.3333V49.6667H48V32.9167Z" fill="black"/>
</svg>
