<svg width="234" height="174" viewBox="0 0 234 174" fill="none" xmlns="http://www.w3.org/2000/svg">
<path d="M232.575 79.675C233.43 79.1528 233.767 78.0762 233.353 77.164C219.537 46.7377 197.006 23.0357 169.738 10.2951C141.995 -2.66776 111.212 -3.41334 83.04 8.19524C54.8678 19.8038 31.1971 42.9875 16.3735 73.4903C1.85089 103.374 -3.22546 138.317 2.00444 172.145C2.18068 173.285 3.29259 174.026 4.41617 173.766L43.3937 164.716C44.4226 164.477 45.0864 163.479 44.9297 162.434C41.6686 140.684 44.9766 118.253 54.3095 99.0483C63.9081 79.2971 79.2354 64.2852 97.4775 56.7684C115.72 49.2515 135.652 49.7343 153.617 58.1281C170.959 66.2312 185.343 81.182 194.326 100.381C194.839 101.477 196.19 101.902 197.222 101.271L232.575 79.675Z" fill="url(#paint0_linear_1_365)"/>
<defs>
<linearGradient id="paint0_linear_1_365" x1="45" y1="-35" x2="110" y2="310" gradientUnits="userSpaceOnUse">
<stop stop-color="#F58520"/>
<stop offset="0.28125" stop-color="#FBC91B"/>
</linearGradient>
</defs>
</svg>
