<svg width="225" height="146" viewBox="0 0 225 146" fill="none" xmlns="http://www.w3.org/2000/svg">
<path d="M223 146C224.105 146 225.001 145.104 224.988 144C224.636 113.696 216.281 84.2526 201.062 59.7698C185.508 34.7486 163.593 16.2076 138.49 6.83287C113.388 -2.54187 86.4028 -2.26343 61.4439 7.62786C36.969 17.3273 15.6893 35.7764 0.560255 60.3808C0.0434666 61.2213 0.229921 62.313 0.988937 62.9433L33.5918 90.0192C34.5352 90.8027 35.9543 90.5588 36.61 89.5225C46.3617 74.1091 59.8843 62.5445 75.3865 56.401C91.548 49.9961 109.022 49.8158 125.276 55.8862C141.53 61.9565 155.721 73.9623 165.792 90.1641C175.529 105.827 180.927 124.626 181.275 144C181.295 145.104 182.188 146 183.293 146H223Z" fill="url(#paint0_linear_1_637)"/>
<defs>
<linearGradient id="paint0_linear_1_637" x1="22" y1="-35" x2="87" y2="310" gradientUnits="userSpaceOnUse">
<stop offset="0.0260417" stop-color="#329C89" stop-opacity="0.9"/>
<stop offset="0.421875" stop-color="#0ADFD2" stop-opacity="0.99"/>
</linearGradient>
</defs>
</svg>
