<svg width="237" height="122" viewBox="0 0 237 122" fill="none" xmlns="http://www.w3.org/2000/svg">
<path d="M1.69811 11.93C0.699916 12.2332 0.101347 13.254 0.335846 14.2705C7.17994 43.9386 21.8088 70.3233 42.1537 89.6435C62.9099 109.354 88.5098 120.662 115.155 121.889C141.801 123.115 168.073 114.196 190.073 96.4532C211.643 79.0571 227.98 54.088 236.769 25.1286C237.067 24.1459 236.56 23.101 235.608 22.7162L197.995 7.51718C196.897 7.07365 195.658 7.67633 195.303 8.80571C189.544 27.1349 179.094 42.9313 165.374 53.9961C151.128 65.4847 134.117 71.2604 116.863 70.4661C99.6094 69.6718 83.0329 62.3499 69.5928 49.5867C56.6348 37.2814 47.2579 20.5504 42.7367 1.72359C42.4642 0.588913 41.2972 -0.096817 40.1806 0.24231L1.69811 11.93Z" fill="url(#paint0_linear_55_130)"/>
<defs>
<linearGradient id="paint0_linear_55_130" x1="406" y1="-76" x2="132" y2="117" gradientUnits="userSpaceOnUse">
<stop offset="0.384046" stop-color="#7DD9F7" stop-opacity="0.9"/>
<stop offset="0.813425" stop-color="#287CCA"/>
</linearGradient>
</defs>
</svg>
