<svg width="70" height="93" viewBox="0 0 70 93" fill="none" xmlns="http://www.w3.org/2000/svg">
<g clip-path="url(#clip0_57_7)">
<path d="M43.2715 26.0557L52.6317 47.2577L62.3153 47.1329L62.4147 54.7991L59.1133 54.8411L57.4243 89.6862C57.3278 91.6745 56.1218 93.2183 54.6505 93.2374L14.5931 93.7567C13.1218 93.7758 11.8763 92.2638 11.7283 90.2787L9.13373 55.4891L5.83515 55.5326L5.73576 47.8664L15.4165 47.7402L24.2267 26.3026L29.1763 30.0722L21.9514 47.6555L46.0968 47.3425L38.4214 29.9523L43.2715 26.0557ZM53.4355 54.9147L14.8115 55.4162L17.096 86.0567L51.9462 85.6049L53.4355 54.9147ZM37.0533 62.7954L37.2521 78.1279L31.5942 78.2012L31.3954 62.8687L37.0533 62.7954ZM25.7374 62.9421L25.9361 78.2746L20.2782 78.3479L20.0794 63.0155L25.7374 62.9421ZM48.3692 62.6487L48.568 77.9812L42.9101 78.0545L42.7113 62.722L48.3692 62.6487Z" fill="black"/>
</g>
<defs>
<clipPath id="clip0_57_7">
<rect width="67.9011" height="92.0027" fill="white" transform="translate(0.104614 0.880371) rotate(-0.742773)"/>
</clipPath>
</defs>
</svg>
