<svg width="245" height="140" viewBox="0 0 245 140" fill="none" xmlns="http://www.w3.org/2000/svg">
<path d="M1.73147 25.0553C0.714375 25.3201 0.074769 26.3286 0.280216 27.3593C6.97017 60.9229 23.5388 90.6393 47.0743 111.217C71.0377 132.168 100.615 142.24 130.378 139.582C160.14 136.924 188.089 121.716 209.095 96.7486C229.709 72.2458 242.279 39.9577 244.607 5.61938C244.68 4.53419 243.861 3.59731 242.777 3.5126L203.154 0.41748C202.036 0.330139 201.067 1.17944 200.983 2.29785C199.341 24.2435 191.237 44.8501 178.043 60.532C164.442 76.6988 146.344 86.5466 127.072 88.2675C107.801 89.9884 88.6483 83.467 73.1315 69.9005C58.1059 56.7634 47.4656 37.8738 43.0177 16.5159C42.7814 15.3813 41.649 14.6615 40.5274 14.9535L1.73147 25.0553Z" fill="url(#paint0_linear_1_355)"/>
<defs>
<linearGradient id="paint0_linear_1_355" x1="19" y1="-102" x2="210" y2="-6" gradientUnits="userSpaceOnUse">
<stop stop-color="#9629EC"/>
<stop offset="1" stop-color="#A863DD"/>
</linearGradient>
</defs>
</svg>
