<svg width="235" height="144" viewBox="0 0 235 144" fill="none" xmlns="http://www.w3.org/2000/svg">
<path d="M233.048 80.7721C233.909 80.2572 234.256 79.1823 233.848 78.2658C221.321 50.1011 201.319 27.5043 176.868 13.935C151.955 0.108634 123.84 -3.55804 96.9607 3.5134C70.081 10.5848 45.9659 27.9919 28.4195 52.9885C11.2307 77.4758 1.30418 107.881 0.119828 139.583C0.0788809 140.679 0.940089 141.594 2.03618 141.634L42.0382 143.066C43.1499 143.105 44.0785 142.23 44.1275 141.119C45.0168 120.939 51.398 101.611 62.3506 86.0076C73.668 69.8848 89.2223 58.6572 106.56 54.0961C123.897 49.5351 142.031 51.9001 158.1 60.8181C173.566 69.4011 186.272 83.5837 194.378 101.262C194.882 102.361 196.227 102.797 197.265 102.176L233.048 80.7721Z" fill="url(#paint0_linear_55_140)"/>
<defs>
<linearGradient id="paint0_linear_55_140" x1="139" y1="-1.85056e-06" x2="177" y2="50" gradientUnits="userSpaceOnUse">
<stop offset="0.151042" stop-color="#DF4498"/>
<stop offset="1" stop-color="#F40B5F"/>
</linearGradient>
</defs>
</svg>
